<svg xmlns="http://www.w3.org/2000/svg" viewBox="0 0 940.13 687.03"><defs><style>.cls-1{fill:#fff;}.cls-2{fill:red;}.cls-3{fill:#000001;}.cls-4{fill:#12171a;}.cls-5{fill:#e7e7e7;}.cls-6{fill:#e6e6e6;}.cls-7{fill:#f1f1f1;}.cls-8{fill:#ff2667;}.cls-9{fill:#ed1e1e;}</style></defs><g id="Capa_2" data-name="Capa 2"><g id="OBJECTS"><circle class="cls-1" cx="839.61" cy="157.6" r="100.52" transform="translate(134.47 639.85) rotate(-45)"/><circle class="cls-2" cx="625.04" cy="92.81" r="43" transform="translate(300.1 634.75) rotate(-67.5)"/><circle class="cls-1" cx="692.21" cy="242.32" r="21.95"/><circle class="cls-1" cx="81.96" cy="547.51" r="81.96" transform="translate(-363.14 218.31) rotate(-45)"/><circle class="cls-1" cx="254.61" cy="563.11" r="54.02"/><circle class="cls-1" cx="174.33" cy="663.45" r="23.57"/><path class="cls-3" d="M590.07,492.58,600,510.72l-88.87,113a14.48,14.48,0,0,1-20.34,2.43c-21.4-14-30.4-61.69-17.17-78.53l71.24-90.61Z"/><path class="cls-4" d="M490.8,626.19h0a14.48,14.48,0,0,0,20.34-2.43l88.87-113-45.2-35.53L483.57,565.8A43,43,0,0,0,490.8,626.19Z"/><path class="cls-3" d="M542.63,490.68l12.18-15.49L600,510.72,590.33,523C583.14,504.83,563,494.73,542.63,490.68Z"/><path class="cls-5" d="M595.89,499.52h0A62,62,0,0,0,683,489.09l1.6-2A62,62,0,0,0,674.15,400h0Z"/><path class="cls-6" d="M686.47,408a12.45,12.45,0,0,1,4.69,10.81c-.9,9.81-5.53,29.3-25.67,54.92s-38,34.71-47.3,37.9a12.47,12.47,0,0,1-11.62-2c-127.9-97.94-314.05-138.48-314.05-138.48l92.63-117.82,92.63-117.83S561.12,306.81,686.47,408Z"/><path class="cls-7" d="M449.63,369c30.31-1.52,61.21-5,90.68-12.46,22.92-5.78,46-14.43,64.64-29.12C629.4,356.06,656.75,384,686.47,408a12.45,12.45,0,0,1,4.69,10.81c-.9,9.81-5.53,29.3-25.67,54.92s-38,34.71-47.3,37.9a12.47,12.47,0,0,1-11.62-2c-127.9-97.94-314.05-138.48-314.05-138.48l22.4-28.49C355.88,363.59,403.21,371.3,449.63,369Z"/><path class="cls-5" d="M472.77,428.94c31.24-2.86,62.77-10.35,90.13-26.15,13.25-7.65,25.76-17.35,35.63-29.12,7.68-9.16,14.76-21.23,17.87-33.18,21.45,24,44.9,47.17,70.07,67.49a12.45,12.45,0,0,1,4.69,10.81c-.9,9.81-5.53,29.3-25.67,54.92s-38,34.71-47.3,37.9a12.47,12.47,0,0,1-11.62-2c-43.16-33.05-92.94-59.55-140-80.18C468.66,429.29,470.71,429.12,472.77,428.94Z"/><path class="cls-2" d="M482.49,128.85c15.13,8.06,15,33.78,8.72,50.2-14.95,39.38-36.87,75.11-62.89,108.19-25.14,32-54.34,63.89-89.33,85.3-9.8,6-21.75,12.72-33.61,12.72-35.23,0-23.74-44.5-16.26-64,13.56-35.35,35.16-67.88,58.45-97.5,21.3-27.09,45.19-52.92,72.7-73.82C433.29,140.06,448.7,130,465,127,472.31,125.65,478.06,126.49,482.49,128.85Z"/><ellipse class="cls-6" cx="383.95" cy="252.36" rx="144.71" ry="43.59" transform="translate(-51.74 398.23) rotate(-51.83)"/><path class="cls-4" d="M536,463.72c14.28-6.36,35-24.63,54.26-49.18s32.16-48.93,35-64.31c1.06-5.77.67-10.25-1.3-13,20.74,23.09,43.3,45.28,67.41,64.73a20.2,20.2,0,0,1,7.54,17.57c-1,10.26-5.75,31.58-27.3,59s-41.12,37.1-50.88,40.44a20.2,20.2,0,0,1-18.85-3.18c-24.63-18.86-51.57-35.58-79-50.3C526.06,466.81,530.55,466.13,536,463.72Z"/><path class="cls-8" d="M622.68,335.83l0,.05,0,0Z"/><path class="cls-8" d="M521.41,464.64l0,0c.13.1.29.18.43.27Z"/><path d="M623.93,337.21l-1.21-1.33A6.68,6.68,0,0,1,623.93,337.21Z"/><path d="M521.86,464.89l1,.57A6.54,6.54,0,0,1,521.86,464.89Z"/><path class="cls-3" d="M518.19,454.11q4,2.08,7.95,4.22l0,.09h.14c5.3.84,28.73-11.65,57.85-48.67s35.67-62.59,33.66-67.65c0,0,0,0,0-.06a1.3,1.3,0,0,0,0-.13h-.13c-2-2.23-4-4.47-6-6.72,4.67-1.48,8.44-1.38,10.93.58l.08.08,0,0,1.21,1.33c2,2.77,2.36,7.25,1.3,13-2.82,15.38-15.69,39.77-35,64.31s-40,42.82-54.26,49.18c-5.44,2.41-9.93,3.09-13.09,1.74l-1-.57c-.14-.09-.3-.17-.43-.27a.53.53,0,0,1-.1-.06C518.84,462.61,517.86,459,518.19,454.11Z"/><path d="M526.17,458.42l0-.09.17.09Z"/><path d="M617.82,342.1l-.18-.2h.13S617.8,342,617.82,342.1Z"/><path class="cls-4" d="M340.1,270.9c.59-6.32,3.54-19.43,16.79-36.29s25.3-22.82,31.3-24.87a12.4,12.4,0,0,1,11.59,1.95A356,356,0,0,0,445.35,241a457.56,457.56,0,0,1-27.13,38.3,454.58,454.58,0,0,1-34.65,39.31,355.19,355.19,0,0,0-38.83-36.91A12.43,12.43,0,0,1,340.1,270.9Z"/><path class="cls-1" d="M393.15,211.79c3.75,2,3.61,8.44,2,12.6A108.29,108.29,0,0,1,379,251.87c-6.4,8.14-13.82,16.28-22.65,21.81-2.47,1.54-5.48,3.28-8.44,3.33-8.81.14-5.76-11.11-3.82-16.05,3.52-8.95,9-17.22,15-24.77a107.59,107.59,0,0,1,18.44-18.86c3.29-2.53,7.18-5.12,11.27-5.94A6.43,6.43,0,0,1,393.15,211.79Z"/><ellipse class="cls-3" cx="368.06" cy="243.25" rx="36.86" ry="10.76" transform="translate(-50.65 382.25) rotate(-51.83)"/><rect class="cls-5" x="534.95" y="517.8" width="20.79" height="35.08" transform="translate(643.18 1293.25) rotate(-141.83)"/><polygon class="cls-3" points="531.39 542.11 548.62 518.36 559.29 526.75 559.67 529.93 542.25 552.08 531.58 543.69 531.39 542.11"/><polygon class="cls-4" points="531.39 542.11 542.06 550.49 559.29 526.75 548.62 518.36 531.39 542.11"/><path class="cls-3" d="M549.1,537.25a11.52,11.52,0,0,0-3.17-3.24,11.36,11.36,0,0,0-4.09-1.93,12.81,12.81,0,0,0,7.26,5.17Z"/><g id="_1De3N3" data-name="1De3N3"><path class="cls-2" d="M331.48,72.36,296.83,61.48l41.38,96.12.11,0c-5-24.06-15-72.31-15-72.31l34.42,10.8.15-.12L316.61,0l-.12,0Z"/></g><g id="_1De3N3-2" data-name="1De3N3"><polygon class="cls-2" points="225.51 107.32 191.07 118.81 313.15 203.16 313.22 203.06 226.46 122.55 260.69 111.13 260.75 110.95 140.84 34.46 140.77 34.56 225.51 107.32"/></g><g id="_1De3N3-3" data-name="1De3N3"><polygon class="cls-2" points="195.75 220.44 174.57 249.94 278.81 240.74 278.82 240.62 205.44 232.22 226.49 202.91 226.42 202.73 122.37 211.91 122.37 212.03 195.75 220.44"/></g><path class="cls-1" d="M839.61,570.65a4.82,4.82,0,1,1,4.82-4.82A4.82,4.82,0,0,1,839.61,570.65Z"/><path class="cls-1" d="M839.61,541.73a4.82,4.82,0,1,1,4.82-4.82A4.82,4.82,0,0,1,839.61,541.73Z"/><path class="cls-1" d="M839.61,512.81a4.82,4.82,0,1,1,4.82-4.82A4.82,4.82,0,0,1,839.61,512.81Z"/><path class="cls-1" d="M839.61,483.9a4.82,4.82,0,1,1,4.82-4.82A4.82,4.82,0,0,1,839.61,483.9Z"/><path class="cls-1" d="M839.61,455a4.82,4.82,0,1,1,4.82-4.82A4.82,4.82,0,0,1,839.61,455Z"/><path class="cls-1" d="M839.61,426.07a4.82,4.82,0,1,1,4.82-4.82A4.82,4.82,0,0,1,839.61,426.07Z"/><path class="cls-1" d="M839.61,397.15a4.82,4.82,0,1,1,4.82-4.82A4.82,4.82,0,0,1,839.61,397.15Z"/><path class="cls-1" d="M839.61,368.24a4.82,4.82,0,1,1,4.82-4.82A4.82,4.82,0,0,1,839.61,368.24Z"/><path class="cls-1" d="M868.52,570.65a4.82,4.82,0,1,1,4.82-4.82A4.82,4.82,0,0,1,868.52,570.65Z"/><path class="cls-1" d="M868.52,541.73a4.82,4.82,0,1,1,4.82-4.82A4.82,4.82,0,0,1,868.52,541.73Z"/><path class="cls-1" d="M868.52,512.81a4.82,4.82,0,1,1,4.82-4.82A4.82,4.82,0,0,1,868.52,512.81Z"/><path class="cls-1" d="M868.52,483.9a4.82,4.82,0,1,1,4.82-4.82A4.82,4.82,0,0,1,868.52,483.9Z"/><path class="cls-1" d="M868.52,455a4.82,4.82,0,1,1,4.82-4.82A4.82,4.82,0,0,1,868.52,455Z"/><path class="cls-1" d="M868.52,426.07a4.82,4.82,0,1,1,4.82-4.82A4.82,4.82,0,0,1,868.52,426.07Z"/><path class="cls-1" d="M868.52,397.15a4.82,4.82,0,1,1,4.82-4.82A4.82,4.82,0,0,1,868.52,397.15Z"/><path class="cls-1" d="M868.52,368.24a4.82,4.82,0,1,1,4.82-4.82A4.82,4.82,0,0,1,868.52,368.24Z"/><path d="M115.4,553.62a18.94,18.94,0,0,1-1.29-4.56l-2.67-17.73c-.54,0-1.09.06-1.64.06a22.42,22.42,0,0,1-20.47-31.52,31.08,31.08,0,0,0-5.87-1.34,9.3,9.3,0,1,0-18.19-1,9.19,9.19,0,0,0,1.3,3.54,31.36,31.36,0,0,0-18,33.21l3.62,24.1a18.78,18.78,0,0,1,.11,4.73ZM73.6,490.39a5.81,5.81,0,0,1,6.62,4.89,5.74,5.74,0,0,1-.34,3,31.44,31.44,0,0,0-9.95,1.5A5.76,5.76,0,0,1,68.71,497,5.82,5.82,0,0,1,73.6,490.39Z"/><path d="M126.81,564l-.31-.1a18.4,18.4,0,0,1-9.07-6.68l-66.06,9.93a18.4,18.4,0,0,1-6.7,9.06l-.27.19a12.32,12.32,0,0,0-5.1,11.94l.61,4L135.8,578l-.61-4.05A12.32,12.32,0,0,0,126.81,564Z"/><path d="M84.18,591.82a12.42,12.42,0,0,1-24.68,2l24.56-3.69A13.76,13.76,0,0,1,84.18,591.82Z"/><circle class="cls-9" cx="109.8" cy="508.99" r="19.15"/><path class="cls-1" d="M104.32,503.62a10.27,10.27,0,0,0,4.13-3.06H112v16.87h-3.68V505.08a10,10,0,0,1-2.8,1.69Z"/><circle cx="839.61" cy="160.27" r="80.34"/><path class="cls-1" d="M886.2,123.93l-.07-.08-.19-.16a11.89,11.89,0,0,0-8-3.07h-76.7a11.85,11.85,0,0,0-8,3.07l-.19.16-.07.08a11.92,11.92,0,0,0-3.71,8.64v54.79A11.92,11.92,0,0,0,793,196l.07.08.19.16a11.87,11.87,0,0,0,8,3.07H878a11.89,11.89,0,0,0,8-3.07l.19-.16a.27.27,0,0,1,.07-.08,11.91,11.91,0,0,0,3.7-8.64V132.57A11.91,11.91,0,0,0,886.2,123.93Zm-32.6,36,30.77-31.12a7.39,7.39,0,0,1,1,3.73v54.79a7.39,7.39,0,0,1-1,3.73ZM878,125.14a7.24,7.24,0,0,1,3,.67l-32.18,32.54h0L843.22,164a5.07,5.07,0,0,1-7.22,0l-5.61-5.67h0L798.2,125.81a7.32,7.32,0,0,1,3.06-.67Zm-83.12,66a7.48,7.48,0,0,1-1-3.73V132.57a7.48,7.48,0,0,1,1-3.73L825.62,160Zm6.42,3.69a7.31,7.31,0,0,1-3.06-.66l30.6-30.94,4,4a9.6,9.6,0,0,0,13.65,0l4-4L881,194.12a7.23,7.23,0,0,1-3,.66Z"/></g></g></svg>